<?xml version="1.0" encoding="UTF-8"?>
<svg width="783px" height="547px" viewBox="0 0 783 547" version="1.1" xmlns="http://www.w3.org/2000/svg" xmlns:xlink="http://www.w3.org/1999/xlink">
    <!-- Generator: Sketch 43.1 (39012) - http://www.bohemiancoding.com/sketch -->
    <title>logo--colored-bottom</title>
    <desc>Created with Sketch.</desc>
    <defs></defs>
    <g id="Page-1" stroke="none" stroke-width="1" fill="none" fill-rule="evenodd">
        <g id="logo--colored-bottom" fill-rule="nonzero">
            <g id="Wrapper" transform="translate(1.000000, 0.000000)">
                <g id="Left">
                    <path d="M421.4,40.8 C364.6,1.8 286.4,15.8 246.9,72.5 C207.4,129.2 220.9,206.8 276.9,246.7 L314.7,192.7 C288.3,173.5 282.3,136.4 300.9,109.7 C319.7,82.9 356.4,76.2 383.5,94.4 L421.1,40.8 L421.3,40.8 L421.4,40.8 Z" id="Zero-Blue" fill="#5068F6"></path>
                    <path d="M1,247.5 L172,247.5 L172,195.2 L102,195.2 L149,128.4 C149,128.4 164,108.7 164,83 C164,43 132,0.8 84,0.8 C33.3,0.8 0.4,39.8 0.4,82.1 L53.4,82.1 C53.4,65.9 66.2,53.1 82,53.1 C99.4,53.1 111.3,68.8 111.3,81.3 C111.3,90.9 106.7,99.3 100.3,106.7 L1,247.7 L1,247.5 Z" id="Two" fill="#EDEFF7"></path>
                </g>
                <g id="Right" transform="translate(227.000000, 108.000000)">
                    <path d="M261.4,251.8 L327.4,251.8 L327.4,0.4 L261.4,0.4 L261.4,251.8 Z M385,0.4 L385,54 L493.7,54 L379.4,251.8 L440.4,251.8 L554.4,54.4 L554.4,0.4 L385,0.4 Z" id="Seventeen" fill="#EDEFF7"></path>
                    <path d="M142.7,4 C199.3,43.5 213.5,121.6 174.5,178.6 C135.5,235.6 58,250 0.7,211.6 L38,157 C65.2,175 102,167.7 120.4,141 C138.9,113.8 132.4,77 105.7,58 L142.7,4 Z" id="Zero-Pink" fill="#DD2C68"></path>
                </g>
            </g>
            <g id="Bottom_ClipGroup" transform="translate(0.000000, 484.000000)" fill="#EDEFF7">
                <g id="Bottom">
                    <g id="Shift">
                        <path d="M35.550569,11.025 C32.7855248,9.84375 29.6254742,9.45 27.6504426,9.45 C24.490392,9.45 22.1203541,9.45 20.5403288,11.025 C18.9603035,12.20625 18.1702908,13.78125 18.1702908,14.9625 C18.1702908,16.93125 18.1702908,18.9 19.7503161,19.6875 L23.7003793,22.44375 L31.6005058,24.80625 C35.550569,25.9875 38.7106196,27.16875 41.4756638,28.74375 C44.2407081,29.925 46.610746,31.5 48.1907713,34.25625 C49.7707966,36.61875 50.9558156,39.76875 50.9558156,43.70625 C50.9558156,47.64375 49.3757903,51.58125 47.0057524,54.3375 C45.4257271,57.09375 43.0556891,59.45625 39.1056259,60.6375 C35.1555627,61.81875 31.2054995,63 27.2554362,63 C23.305373,63 16.9852719,61.81875 12.245196,59.85 C7.50512012,58.66875 3.5550569,55.9125 0.395006322,53.15625 L5.13508219,43.3125 C8.29513277,46.06875 11.4551833,48.43125 15.8002529,50.00625 C19.7503161,51.58125 23.7003793,52.36875 27.6504426,52.36875 C31.6005058,52.36875 33.1805311,52.36875 35.550569,51.1875 C37.9206069,50.00625 37.5256006,48.43125 37.5256006,46.06875 C37.5256006,44.49375 37.5256006,42.91875 35.9455753,42.13125 C35.1555627,40.55625 33.5755374,39.76875 31.9955121,38.98125 L24.0953857,36.225 C20.1453224,35.04375 16.1952592,33.8625 14.2202276,32.2875 C11.4551833,31.5 9.08514541,29.925 7.50512012,27.5625 C5.53008851,25.59375 4.34506955,22.44375 4.34506955,18.50625 C4.34506955,14.56875 5.13508219,11.8125 7.1101138,9.05625 C8.29513277,6.3 11.060177,4.33125 15.0102402,2.75625 C18.9603035,1.18125 22.9103667,0.39375 26.8604299,0.39375 C30.8104931,0.39375 34.7605564,0.39375 38.7106196,2.3625 C42.6606828,3.54375 46.610746,5.11875 49.7707966,7.0875 L45.0307207,17.325 C41.8706702,15.35625 38.3156133,13.3875 35.1555627,12.6 L35.9455753,11.8125 L35.550569,11.025 Z" id="S"></path>
                        <polygon id="H_1" points="194.343111 0 206.1933 0 206.1933 25.9875 237.003793 25.9875 237.003793 0 248.853983 0 248.853983 61.03125 237.003793 61.03125 237.003793 36.225 206.1933 36.225 206.1933 61.03125 194.343111 61.03125"></polygon>
                        <polygon id="I" points="396.586348 0 408.436537 0 408.436537 61.03125 396.586348 61.03125"></polygon>
                        <polygon id="F" points="555.773896 0 598.434578 0 598.434578 9.84375 568.019092 9.84375 568.019092 26.38125 595.669534 26.38125 595.669534 36.61875 568.019092 36.61875 568.019092 61.03125 556.168902 61.03125 556.168902 0"></polygon>
                        <polygon id="T" points="732.736728 0 782.902531 0 782.902531 10.2375 763.152215 10.2375 763.152215 61.425 751.302025 61.425 751.302025 10.2375 732.736728 10.2375"></polygon>
                    </g>
                </g>
            </g>
        </g>
    </g>
</svg>