<svg id="Logo" xmlns="http://www.w3.org/2000/svg" xmlns:xlink="http://www.w3.org/1999/xlink" viewBox="30 0 1060 430">
  <g id="Wrapper">
    <g id="Left">
      <path id="Zero-Blue" fill="#5068F6" d="M587.4 76.8c-56.8-39-135-25-174.5 31.7s-26 134.3 30 174.2l37.8-54c-26.4-19.2-32.4-56.3-13.8-83 18.8-26.8 55.5-33.5 82.6-15.3l37.6-53.6h.2z"/>
      <path id="Two" fill="#EDEFF7" d="M167 283.5h171v-52.3h-70l47-66.8s15-19.7 15-45.4c0-40-32-82.2-80-82.2-50.7 0-83.6 39-83.6 81.3h53c0-16.2 12.8-29 28.6-29 17.4 0 29.3 15.7 29.3 28.2 0 9.6-4.6 18-11 25.4l-99.3 141z"/>
    </g>
    <g id="Right">
      <path id="Seventeen" fill="#EDEFF7" d="M654.4 395.8h66V144.4h-66v251.4zM778 144.4V198h108.7L772.4 395.8h61l114-197.4v-54H778z"/>
      <path id="Zero-Pink" fill="#DD2C68" d="M535.7 148c56.6 39.5 70.8 117.6 31.8 174.6S451 394 393.7 355.6L431 301c27.2 18 64 10.7 82.4-16 18.5-27.2 12-64-14.7-83l37-54z"/>
    </g>
  </g>
  <g id="Top_ClipGroup">
    <defs> <path id="Shift_Clip" d="M653.7 61h340v40h-340z"/> </defs>
    <clipPath id="Shift_Clip"> <use xlink:href="#Shift_Clip" overflow="visible"/> </clipPath>
    <g id="Top" class="st3">
      <g id="Humber" fill="#EDEFF7">
        <path id="H" d="M714 73.6h3v6.7h7.7v-6.7h3v15.6h-3V83H717v6h-3V73.6z"/>
        <path id="U" d="M768.8 85.8c.7.7 1.6 1 2.8 1s2-.4 2.8-1c.7-.7 1-1.6 1-3v-9h3v9c0 1.4-.3 2.6-.8 3.7-.5 1-1.3 1.8-2.4 2.3s-2.2.8-3.6.8-2.6-.3-3.6-.8-2-1.3-2.4-2.3c-.5-1-.8-2.2-.8-3.6v-9.4h3V83c0 1 .3 2 1 2.8z"/>
        <path id="M" d="M815.4 73.6h3.4l5.2 10 5-10h3.5v15.6h-2.8v-11l-4.8 9.5h-2l-5-9.6v11.4h-3l.3-15.7z"/>
        <path id="B" d="M880.8 74.7c1 .7 1.4 1.6 1.4 2.8 0 1-.2 1.6-.7 2.2s-1 1-2 1.3c1 .2 2 .7 2.5 1.3s1 1.6 1 2.6-.6 2.2-1.7 3-2.5 1-4.2 1h-7V73.6h7c1.5 0 3 .4 3.8 1zm-2.4 4.8c.4-.4.7-.8.7-1.4s0-1-.5-1.2c-.4-.3-1-.4-1.8-.4H873V80h3.7c.8 0 1.4 0 1.8-.5zm.5 6.6c.3-.2.6-.7.6-1.4s-.3-1-.8-1.5-1.4-.4-2.3-.4H873v4h3.7c1 .2 1.7 0 2.2-.5z"/>
        <path id="E" d="M919.2 73.6h11.5v2.6h-8.5v4h7.6v2.5h-7.6v4h8.7V89h-12V73.4l.2.2z"/>
        <path id="R" d="M977.2 89.3l-2.7-4.6h-4.2v4.6h-3V73.6h6.5c2 0 3.5.4 4.6 1.4s1.6 2.2 1.6 4c0 1-.3 2-.8 3s-1.3 1.5-2.3 2l3.4 5H977l.2.3zm-6.8-7.3h3.5c1 0 2-.2 2.4-.7.6-.5 1-1.2 1-2.2s-.4-1.4-1-2-1.5-.7-2.6-.7h-3.6V82h.2z"/>
      </g>
    </g>
  </g>
  <g id="Bottom_ClipGroup">
    <defs> <path id="Humber_Clip" d="M38 336.8h300v40H38z"/> </defs>
    <clipPath id="Humber_Clip"> <use xlink:href="#Humber_Clip" overflow="visible"/> </clipPath>
    <g id="Bottom" class="st4">
      <g id="Shift" fill="#EDEFF7">
        <path id="S" d="M113 351.8c-.7-.3-1.5-.4-2-.4-.8 0-1.4 0-1.8.4-.4.3-.6.7-.6 1 0 .5 0 1 .4 1.2l1 .7 2 .6c1 .3 1.8.6 2.5 1 .7.3 1.3.7 1.7 1.4.4.6.7 1.4.7 2.4s-.4 2-1 2.7c-.4.7-1 1.3-2 1.6s-2 .6-3 .6-2.6-.3-3.8-.8c-1.2-.3-2.2-1-3-1.7l1.2-2.5c.8.7 1.6 1.3 2.7 1.7 1 .4 2 .6 3 .6s1.4 0 2-.3.5-.7.5-1.3c0-.4 0-.8-.4-1-.2-.4-.6-.6-1-.8l-2-.7c-1-.3-2-.6-2.5-1-.7-.2-1.3-.6-1.7-1.2-.5-.5-.8-1.3-.8-2.3s.2-1.7.7-2.4c.3-.7 1-1.2 2-1.6s2-.6 3-.6 2 0 3 .5c1 .3 2 .7 2.8 1.2l-1.2 2.6c-.8-.5-1.7-1-2.5-1.2l.2-.2z"/>
        <path id="H_1" d="M153.2 349h3v6.6h7.8V349h3v15.5h-3v-6.3h-7.8v6.3h-3V349z"/>
        <path id="I" d="M204.4 349h3v15.5h-3V349z"/>
        <path id="F" d="M244.7 349h10.8v2.5h-7.7v4.2h7v2.6h-7v6.2h-3V349z"/>
        <path id="T" d="M289.5 349h12.7v2.6h-5v13h-3v-13h-4.7V349z"/>
      </g>
    </g>
  </g>
</svg>
