<?xml version="1.0" encoding="UTF-8"?>
<svg width="508px" height="231px" viewBox="0 0 508 231" version="1.1" xmlns="http://www.w3.org/2000/svg" xmlns:xlink="http://www.w3.org/1999/xlink">
    <!-- Generator: Sketch 42 (36781) - http://www.bohemiancoding.com/sketch -->
    <title>logo--black copy</title>
    <desc>Created with Sketch.</desc>
    <defs></defs>
    <g id="Page-1" stroke="none" stroke-width="1" fill="none" fill-rule="evenodd">
        <g id="Artboard" transform="translate(-425.000000, -1280.000000)" fill="#FFFFFF">
            <g id="logo--black-copy" transform="translate(425.000000, 1249.000000)">
                <path d="M313,261.25 L355.355,261.25 L355.355,100 L313,100 L313,261.25 Z M392.192458,100 L392.192458,134.4 L461.977458,134.4 L388.662458,261.25 L427.792458,261.25 L500.892458,134.615 L500.892458,100 L392.192458,100 Z" id="2o17"></path>
                <g id="Group" transform="translate(208.017550, 146.017550) rotate(-315.000000) translate(-208.017550, -146.017550) translate(109.517550, 38.017550)">
                    <path d="M13.7071068,6.70710678 C57.9408948,7.0265332 93.7421068,43.2368085 93.7421068,87.5449771 C93.7421068,131.853146 57.9408949,167.637216 13.7071069,167.952873 L13.7071068,125.668139 C34.6539921,125.275427 51.4621068,108.018564 51.4621068,87.1899771 C51.4621068,66.1488532 34.6539921,49.0996567 13.7071068,48.7117313 L13.7071068,6.70710678 Z" id="Combined-Shape-Copy" transform="translate(53.724607, 87.329990) scale(-1, 1) rotate(10.000000) translate(-53.724607, -87.329990) "></path>
                    <path d="M102.182683,48.000822 C146.416471,48.3202484 182.217683,84.5305237 182.217683,128.838692 C182.217683,173.146861 146.416471,208.930931 102.182683,209.246588 L102.182683,166.961854 C123.129569,166.569142 139.937683,149.312279 139.937683,128.483692 C139.937683,107.442568 123.129569,90.3933718 102.182683,90.0054465 L102.182683,48.000822 Z" id="Combined-Shape-Copy-2" transform="translate(142.200183, 128.623705) rotate(-10.599999) translate(-142.200183, -128.623705) "></path>
                </g>
                <path d="M0.422,189.25 L109.931,189.25 L109.931,155.701 L65.199,155.701 L95.372,112.868 C95.372,112.868 104.867,100.208 104.867,83.75 C104.867,58.008 84.4,31 53.594,31 C21.1,31 0,56.109 0,83.117 L33.971,83.117 C33.971,72.567 42.2,64.338 52.328,64.338 C63.511,64.338 71.107,74.466 71.107,82.484 C71.107,88.603 68.153,93.878 64.144,98.731 L0.422,189.25 Z" id="Path"></path>
                <text id="shift-text" font-family=".SFNSDisplay, .SF NS Display" font-size="49" font-weight="normal" letter-spacing="18.3950825">
                    <tspan x="305" y="75">shift</tspan>
                </text>
            </g>
        </g>
    </g>
</svg>